<?xml version="1.0" encoding="UTF-8"?>
<svg version="1.1" xmlns="http://www.w3.org/2000/svg" width="512" height="512">
<path d="M0 0 C6.13052573 3.70468329 9.9448497 8.95587425 12.5625 15.5 C12.5625 20.45 12.5625 25.4 12.5625 30.5 C33.6825 30.5 54.8025 30.5 76.5625 30.5 C76.5625 25.55 76.5625 20.6 76.5625 15.5 C79.01848896 8.13203312 83.89906888 2.84736466 90.890625 -0.671875 C97.36464965 -2.67844404 105.73527577 -2.7761327 112 0 C118.13052573 3.70468329 121.9448497 8.95587425 124.5625 15.5 C124.5625 20.45 124.5625 25.4 124.5625 30.5 C145.6825 30.5 166.8025 30.5 188.5625 30.5 C188.5625 25.55 188.5625 20.6 188.5625 15.5 C191.01848896 8.13203312 195.89906888 2.84736466 202.890625 -0.671875 C209.36464965 -2.67844404 217.73527577 -2.7761327 224 0 C230.13052573 3.70468329 233.9448497 8.95587425 236.5625 15.5 C236.5625 20.45 236.5625 25.4 236.5625 30.5 C257.6825 30.5 278.8025 30.5 300.5625 30.5 C300.5625 25.55 300.5625 20.6 300.5625 15.5 C303.01848896 8.13203312 307.89906888 2.84736466 314.890625 -0.671875 C321.36464965 -2.67844404 329.73527577 -2.7761327 336 0 C341.866586 3.54518423 346.46974787 8.98284244 348.5625 15.5 C348.69960218 18.14607209 348.75312972 20.67469013 348.6875 23.3125 C348.67847656 24.00537109 348.66945313 24.69824219 348.66015625 25.41210938 C348.63676157 27.10822395 348.60089641 28.80415871 348.5625 30.5 C349.4596875 30.47905273 350.356875 30.45810547 351.28125 30.43652344 C354.64349859 30.36792384 358.00499235 30.31799706 361.36767578 30.28027344 C362.81668917 30.26028705 364.26562325 30.23308803 365.71435547 30.19824219 C375.12226527 29.97779496 382.3376879 29.92146257 389.8046875 36.46484375 C390.34351563 37.11582031 390.88234375 37.76679687 391.4375 38.4375 C391.99179687 39.08589844 392.54609375 39.73429687 393.1171875 40.40234375 C396.30831818 45.03379558 396.81349608 48.98670008 396.81976891 54.55848408 C396.82327498 55.26084323 396.82678105 55.96320239 396.83039337 56.68684515 C396.83971544 59.04613566 396.83478203 61.40517976 396.82992554 63.76448059 C396.83366139 65.47076373 396.83826265 67.17704515 396.84365618 68.88332385 C396.85590959 73.57685332 396.85562296 78.27031165 396.85326743 82.96385348 C396.85285986 88.02396347 396.86389273 93.08405046 396.87338257 98.14414978 C396.89000633 108.05963304 396.89549273 117.97509253 396.89660732 127.89058856 C396.89755714 135.94913878 396.90166409 144.00768114 396.90800858 152.06622887 C396.92562467 174.90590357 396.93484686 197.74555946 396.93334763 220.585241 C396.93326772 221.81692836 396.9331878 223.04861573 396.93310547 224.31762695 C396.93302371 225.55081548 396.93294195 226.784004 396.93285771 228.05456188 C396.93204468 248.04337165 396.95118556 268.0321061 396.9793822 288.02089409 C397.00809554 308.53760153 397.02192335 329.05427222 397.02019465 349.57100028 C397.01953022 361.09265713 397.02504587 372.61423502 397.04655075 384.13587379 C397.06474213 393.94523378 397.06912668 403.754479 397.0555319 413.56384853 C397.04899197 418.56938837 397.04892206 423.57470788 397.0662384 428.5802269 C397.08192879 433.16284515 397.07914682 437.74506766 397.06167014 442.32767602 C397.05859134 443.9851294 397.06226568 445.64261202 397.07339029 447.30003092 C397.13304643 456.81873037 397.15840479 464.25536909 390.59765625 471.7421875 C389.94667969 472.28101563 389.29570312 472.81984375 388.625 473.375 C387.97660156 473.92929687 387.32820313 474.48359375 386.66015625 475.0546875 C381.93702097 478.30898927 377.62316193 478.79025952 372.00426006 478.75726891 C371.24787295 478.76077498 370.49148584 478.76428105 369.7121779 478.76789337 C367.16910427 478.77722214 364.62625891 478.77228027 362.08317566 478.76742554 C360.24489906 478.77116105 358.40662405 478.77576218 356.56835157 478.78115618 C351.50997315 478.79341378 346.45166074 478.79312247 341.39327085 478.79076743 C335.94051996 478.79035996 330.48779043 478.80139171 325.03504944 478.81088257 C314.34953547 478.8275086 303.66404356 478.83299284 292.97851773 478.83410732 C284.29449093 478.83505703 275.61047141 478.83916342 266.92644691 478.84550858 C242.31597189 478.86312525 217.70551331 478.8723589 193.09503206 478.87084763 C192.43164225 478.87080774 191.76825243 478.87076785 191.0847599 478.87072675 C189.74322379 478.87064587 188.40168768 478.87056228 187.06015157 478.87047596 C166.18777827 478.86925044 145.31546994 478.88426349 124.44311523 478.91162109 C100.99559047 478.9423413 77.54810134 478.95952829 54.10055429 478.95769465 C41.68463809 478.95703012 29.26879517 478.96255006 16.85289574 478.98405075 C6.28230399 479.00223831 -4.28818126 479.00662982 -14.85878185 478.9930319 C-20.25316706 478.98649007 -25.64734781 478.98642898 -31.04171371 479.0037384 C-35.97960349 479.01942029 -40.91712587 479.01665547 -45.85500642 478.99917014 C-47.64166474 478.99608947 -49.42835014 478.99977263 -51.21497653 479.01089029 C-69.17081939 479.11522708 -69.17081939 479.11522708 -76.6796875 472.53515625 C-77.21851563 471.88417969 -77.75734375 471.23320312 -78.3125 470.5625 C-78.86679688 469.91410156 -79.42109375 469.26570313 -79.9921875 468.59765625 C-83.18331818 463.96620442 -83.68849608 460.01329992 -83.69476891 454.44151592 C-83.69827498 453.73915677 -83.70178105 453.03679761 -83.70539337 452.31315485 C-83.71471544 449.95386434 -83.70978203 447.59482024 -83.70492554 445.23551941 C-83.70866139 443.52923627 -83.71326265 441.82295485 -83.71865618 440.11667615 C-83.73090959 435.42314668 -83.73062296 430.72968835 -83.72826743 426.03614652 C-83.72785986 420.97603653 -83.73889273 415.91594954 -83.74838257 410.85585022 C-83.76500633 400.94036696 -83.77049273 391.02490747 -83.77160732 381.10941144 C-83.77255714 373.05086122 -83.77666409 364.99231886 -83.78300858 356.93377113 C-83.80062467 334.09409643 -83.80984686 311.25444054 -83.80834763 288.414759 C-83.80826772 287.18307164 -83.8081878 285.95138427 -83.80810547 284.68237305 C-83.80802371 283.44918452 -83.80794195 282.215996 -83.80785771 280.94543812 C-83.80704468 260.95662835 -83.82618556 240.9678939 -83.8543822 220.97910591 C-83.88309554 200.46239847 -83.89692335 179.94572778 -83.89519465 159.42899972 C-83.89453022 147.90734287 -83.90004587 136.38576498 -83.92155075 124.86412621 C-83.93974213 115.05476622 -83.94412668 105.245521 -83.9305319 95.43615147 C-83.92399197 90.43061163 -83.92392206 85.42529212 -83.9412384 80.4197731 C-83.95692879 75.83715485 -83.95414682 71.25493234 -83.93667014 66.67232398 C-83.93359134 65.0148706 -83.93726568 63.35738798 -83.94839029 61.69996908 C-84.00804643 52.18126963 -84.03340479 44.74463091 -77.47265625 37.2578125 C-76.82167969 36.71898437 -76.17070313 36.18015625 -75.5 35.625 C-74.52740234 34.79355469 -74.52740234 34.79355469 -73.53515625 33.9453125 C-68.82109874 30.69726543 -64.84083749 30.25799722 -59.16796875 30.3046875 C-58.48696609 30.3075174 -57.80596344 30.31034729 -57.10432434 30.31326294 C-54.94436545 30.32439475 -52.78483206 30.34948543 -50.625 30.375 C-49.15430289 30.38503889 -47.68359924 30.39416315 -46.21289062 30.40234375 C-42.62095714 30.42431087 -39.02927015 30.4587918 -35.4375 30.5 C-35.45490234 29.46939453 -35.47230469 28.43878906 -35.49023438 27.37695312 C-35.50430891 26.01172284 -35.51795839 24.64648813 -35.53125 23.28125 C-35.54381836 22.60352539 -35.55638672 21.92580078 -35.56933594 21.22753906 C-35.61927047 14.38650856 -34.23450085 10.4313036 -29.56640625 5.5390625 C-21.53085572 -1.90407504 -10.47748243 -4.6429628 0 0 Z " fill="#CED7DB" transform="translate(99.4375,17.5)"/>
<path d="M0 0 C1.66244946 1.00699531 3.32769521 2.00945749 5 3 C6.36318359 2.03900391 6.36318359 2.03900391 7.75390625 1.05859375 C29.2881874 -13.86667126 51.78280316 -21.78354974 78.1875 -18.4375 C89.04016656 -16.27609937 99.43045454 -11.12634457 107.984375 -4.1875 C109.88850707 -2.7786016 109.88850707 -2.7786016 111.88354492 -3.29394531 C114.07866616 -4.02624323 115.88187462 -4.9434765 117.87890625 -6.109375 C137.90433869 -17.45920986 159.20049471 -23.256098 182.0546875 -16.97265625 C203.54309519 -9.87635185 219.1670788 3.23785086 230 23 C240.99244767 44.87441849 240.48722422 70.55198517 233.04956055 93.56103516 C221.32295407 127.39301343 198.28275247 156.16324145 173.16333008 181.09741211 C171.42745269 182.82248477 169.7026491 184.55811991 167.97851562 186.29492188 C162.02962914 192.2504659 156.00191493 197.86344361 149.38549805 203.07983398 C146.94759197 205.04218495 144.65951268 207.1120995 142.375 209.25 C135.9748927 215.07104997 129.07315438 220.22756481 122.14404297 225.39550781 C120.08671722 226.93510527 118.04501287 228.49369151 116.00390625 230.0546875 C114.77439283 230.97523569 113.54397297 231.89457488 112.3125 232.8125 C111.48540527 233.45239868 111.48540527 233.45239868 110.64160156 234.10522461 C108.16711478 235.91627855 106.10951381 236.97635329 103.10546875 237.625 C98.47992928 236.69407382 95.60186865 234.13269026 92 231.1875 C91.25451904 230.59654541 90.50903809 230.00559082 89.7409668 229.39672852 C88.21387341 228.18491232 86.69130535 226.96737136 85.17333984 225.74414062 C83.2210585 224.17740304 81.25273305 222.63664982 79.26953125 221.109375 C70.93815109 214.68257575 62.93407533 207.90915678 55 201 C50.98262936 202.66336654 48.01964738 205.46230863 44.8125 208.3125 C37.44583765 214.74223065 29.76093971 220.68830456 21.93310547 226.54296875 C20.18048195 227.86396612 18.44868327 229.20706588 16.72265625 230.5625 C15.78292969 231.284375 14.84320313 232.00625 13.875 232.75 C13.08867187 233.36359375 12.30234375 233.9771875 11.4921875 234.609375 C8.17414058 236.46082438 5.80733014 236.96700039 2 237 C-0.52687693 235.67740895 -2.37487527 234.49609745 -4.5625 232.75 C-5.46150024 232.06925415 -5.46150024 232.06925415 -6.37866211 231.37475586 C-8.26798798 229.93551597 -10.13398839 228.46928895 -12 227 C-13.18649152 226.08852947 -14.37397341 225.17834652 -15.5625 224.26953125 C-22.38092181 219.01926102 -29.01552039 213.55826382 -35.54443359 207.953125 C-37.7496218 206.06348398 -39.96544146 204.18806548 -42.1940918 202.32617188 C-50.34347241 195.48370035 -58.02823559 188.28595702 -65.5246582 180.73608398 C-67.32215805 178.92778392 -69.13022316 177.13054023 -70.93945312 175.33398438 C-77.74976174 168.53227302 -84.0743194 161.59666103 -90 154 C-90.87265503 152.90836548 -90.87265503 152.90836548 -91.76293945 151.79467773 C-115.37481821 122.19125405 -133.24170344 86.82207042 -130 48 C-126.77302484 26.36731464 -114.88353793 7.08715724 -97.3046875 -6.0078125 C-64.8136917 -27.39077555 -30.86595512 -20.02586651 0 0 Z " fill="#D71B5F" transform="translate(202,203)"/>
<path d="M0 0 C6.13052573 3.70468329 9.9448497 8.95587425 12.5625 15.5 C12.5625 20.45 12.5625 25.4 12.5625 30.5 C33.6825 30.5 54.8025 30.5 76.5625 30.5 C76.5625 25.55 76.5625 20.6 76.5625 15.5 C79.01848896 8.13203312 83.89906888 2.84736466 90.890625 -0.671875 C97.36464965 -2.67844404 105.73527577 -2.7761327 112 0 C118.13052573 3.70468329 121.9448497 8.95587425 124.5625 15.5 C124.5625 20.45 124.5625 25.4 124.5625 30.5 C145.6825 30.5 166.8025 30.5 188.5625 30.5 C188.5625 25.55 188.5625 20.6 188.5625 15.5 C191.01848896 8.13203312 195.89906888 2.84736466 202.890625 -0.671875 C209.36464965 -2.67844404 217.73527577 -2.7761327 224 0 C230.13052573 3.70468329 233.9448497 8.95587425 236.5625 15.5 C236.5625 20.45 236.5625 25.4 236.5625 30.5 C257.6825 30.5 278.8025 30.5 300.5625 30.5 C300.5625 25.55 300.5625 20.6 300.5625 15.5 C303.01848896 8.13203312 307.89906888 2.84736466 314.890625 -0.671875 C321.36464965 -2.67844404 329.73527577 -2.7761327 336 0 C341.866586 3.54518423 346.46974787 8.98284244 348.5625 15.5 C348.69960218 18.14607209 348.75312972 20.67469013 348.6875 23.3125 C348.67847656 24.00537109 348.66945313 24.69824219 348.66015625 25.41210938 C348.63676157 27.10822395 348.60089641 28.80415871 348.5625 30.5 C349.4596875 30.47905273 350.356875 30.45810547 351.28125 30.43652344 C354.64349859 30.36792384 358.00499235 30.31799706 361.36767578 30.28027344 C362.81668917 30.26028705 364.26562325 30.23308803 365.71435547 30.19824219 C375.12226527 29.97779496 382.3376879 29.92146257 389.8046875 36.46484375 C390.34351563 37.11582031 390.88234375 37.76679687 391.4375 38.4375 C391.99179687 39.08589844 392.54609375 39.73429687 393.1171875 40.40234375 C396.30831818 45.03379558 396.81349608 48.98670008 396.81976891 54.55848408 C396.82327498 55.26084323 396.82678105 55.96320239 396.83039337 56.68684515 C396.83971544 59.04613566 396.83478203 61.40517976 396.82992554 63.76448059 C396.83366139 65.47076373 396.83826265 67.17704515 396.84365618 68.88332385 C396.85590959 73.57685332 396.85562296 78.27031165 396.85326743 82.96385348 C396.85285986 88.02396347 396.86389273 93.08405046 396.87338257 98.14414978 C396.89000633 108.05963304 396.89549273 117.97509253 396.89660732 127.89058856 C396.89755714 135.94913878 396.90166409 144.00768114 396.90800858 152.06622887 C396.92562467 174.90590357 396.93484686 197.74555946 396.93334763 220.585241 C396.93326772 221.81692836 396.9331878 223.04861573 396.93310547 224.31762695 C396.93302371 225.55081548 396.93294195 226.784004 396.93285771 228.05456188 C396.93204468 248.04337165 396.95118556 268.0321061 396.9793822 288.02089409 C397.00809554 308.53760153 397.02192335 329.05427222 397.02019465 349.57100028 C397.01953022 361.09265713 397.02504587 372.61423502 397.04655075 384.13587379 C397.06474213 393.94523378 397.06912668 403.754479 397.0555319 413.56384853 C397.04899197 418.56938837 397.04892206 423.57470788 397.0662384 428.5802269 C397.08192879 433.16284515 397.07914682 437.74506766 397.06167014 442.32767602 C397.05859134 443.9851294 397.06226568 445.64261202 397.07339029 447.30003092 C397.13304643 456.81873037 397.15840479 464.25536909 390.59765625 471.7421875 C389.94667969 472.28101563 389.29570312 472.81984375 388.625 473.375 C387.97660156 473.92929687 387.32820313 474.48359375 386.66015625 475.0546875 C381.93702097 478.30898927 377.62316193 478.79025952 372.00426006 478.75726891 C371.24787295 478.76077498 370.49148584 478.76428105 369.7121779 478.76789337 C367.16910427 478.77722214 364.62625891 478.77228027 362.08317566 478.76742554 C360.24489906 478.77116105 358.40662405 478.77576218 356.56835157 478.78115618 C351.50997315 478.79341378 346.45166074 478.79312247 341.39327085 478.79076743 C335.94051996 478.79035996 330.48779043 478.80139171 325.03504944 478.81088257 C314.34953547 478.8275086 303.66404356 478.83299284 292.97851773 478.83410732 C284.29449093 478.83505703 275.61047141 478.83916342 266.92644691 478.84550858 C242.31597189 478.86312525 217.70551331 478.8723589 193.09503206 478.87084763 C192.43164225 478.87080774 191.76825243 478.87076785 191.0847599 478.87072675 C189.74322379 478.87064587 188.40168768 478.87056228 187.06015157 478.87047596 C166.18777827 478.86925044 145.31546994 478.88426349 124.44311523 478.91162109 C100.99559047 478.9423413 77.54810134 478.95952829 54.10055429 478.95769465 C41.68463809 478.95703012 29.26879517 478.96255006 16.85289574 478.98405075 C6.28230399 479.00223831 -4.28818126 479.00662982 -14.85878185 478.9930319 C-20.25316706 478.98649007 -25.64734781 478.98642898 -31.04171371 479.0037384 C-35.97960349 479.01942029 -40.91712587 479.01665547 -45.85500642 478.99917014 C-47.64166474 478.99608947 -49.42835014 478.99977263 -51.21497653 479.01089029 C-69.17081939 479.11522708 -69.17081939 479.11522708 -76.6796875 472.53515625 C-77.21851563 471.88417969 -77.75734375 471.23320312 -78.3125 470.5625 C-78.86679688 469.91410156 -79.42109375 469.26570313 -79.9921875 468.59765625 C-83.18331818 463.96620442 -83.68849608 460.01329992 -83.69476891 454.44151592 C-83.69827498 453.73915677 -83.70178105 453.03679761 -83.70539337 452.31315485 C-83.71471544 449.95386434 -83.70978203 447.59482024 -83.70492554 445.23551941 C-83.70866139 443.52923627 -83.71326265 441.82295485 -83.71865618 440.11667615 C-83.73090959 435.42314668 -83.73062296 430.72968835 -83.72826743 426.03614652 C-83.72785986 420.97603653 -83.73889273 415.91594954 -83.74838257 410.85585022 C-83.76500633 400.94036696 -83.77049273 391.02490747 -83.77160732 381.10941144 C-83.77255714 373.05086122 -83.77666409 364.99231886 -83.78300858 356.93377113 C-83.80062467 334.09409643 -83.80984686 311.25444054 -83.80834763 288.414759 C-83.80826772 287.18307164 -83.8081878 285.95138427 -83.80810547 284.68237305 C-83.80802371 283.44918452 -83.80794195 282.215996 -83.80785771 280.94543812 C-83.80704468 260.95662835 -83.82618556 240.9678939 -83.8543822 220.97910591 C-83.88309554 200.46239847 -83.89692335 179.94572778 -83.89519465 159.42899972 C-83.89453022 147.90734287 -83.90004587 136.38576498 -83.92155075 124.86412621 C-83.93974213 115.05476622 -83.94412668 105.245521 -83.9305319 95.43615147 C-83.92399197 90.43061163 -83.92392206 85.42529212 -83.9412384 80.4197731 C-83.95692879 75.83715485 -83.95414682 71.25493234 -83.93667014 66.67232398 C-83.93359134 65.0148706 -83.93726568 63.35738798 -83.94839029 61.69996908 C-84.00804643 52.18126963 -84.03340479 44.74463091 -77.47265625 37.2578125 C-76.82167969 36.71898437 -76.17070313 36.18015625 -75.5 35.625 C-74.52740234 34.79355469 -74.52740234 34.79355469 -73.53515625 33.9453125 C-68.82109874 30.69726543 -64.84083749 30.25799722 -59.16796875 30.3046875 C-58.48696609 30.3075174 -57.80596344 30.31034729 -57.10432434 30.31326294 C-54.94436545 30.32439475 -52.78483206 30.34948543 -50.625 30.375 C-49.15430289 30.38503889 -47.68359924 30.39416315 -46.21289062 30.40234375 C-42.62095714 30.42431087 -39.02927015 30.4587918 -35.4375 30.5 C-35.45490234 29.46939453 -35.47230469 28.43878906 -35.49023438 27.37695312 C-35.50430891 26.01172284 -35.51795839 24.64648813 -35.53125 23.28125 C-35.54381836 22.60352539 -35.55638672 21.92580078 -35.56933594 21.22753906 C-35.61927047 14.38650856 -34.23450085 10.4313036 -29.56640625 5.5390625 C-21.53085572 -1.90407504 -10.47748243 -4.6429628 0 0 Z M-67.4375 126.5 C-67.499375 180.846875 -67.56125 235.19375 -67.625 291.1875 C-67.65231201 308.37030029 -67.67962402 325.55310059 -67.70776367 343.2565918 C-67.71779475 358.6112433 -67.71779475 358.6112433 -67.72383118 373.96589661 C-67.72663483 380.8240414 -67.73766478 387.68211333 -67.75422668 394.54023743 C-67.77328679 402.44448827 -67.78201627 410.34866895 -67.77783485 418.25294297 C-67.77602305 422.29864559 -67.77894909 426.34419126 -67.79514539 430.38986528 C-67.80969321 434.04588374 -67.8105038 437.70163357 -67.80020332 441.35766411 C-67.79832144 443.31058122 -67.81129628 445.26349504 -67.82474232 447.21636677 C-67.8187697 448.37620516 -67.81279709 449.53604355 -67.80664349 450.73102856 C-67.80778265 451.73159163 -67.80892181 452.7321547 -67.81009549 453.76303786 C-67.37060058 456.99142083 -66.34393289 458.87950264 -64.4375 461.5 C-61.51487092 462.96131454 -58.583847 462.63959015 -55.38057995 462.63142776 C-54.64195094 462.6334804 -53.90332194 462.63553303 -53.14231023 462.63764787 C-50.64166599 462.64334876 -48.14107628 462.64185683 -45.64042664 462.64044189 C-43.83972558 462.64302376 -42.0390251 462.64603642 -40.23832542 462.6494453 C-35.27000657 462.65753951 -30.30170214 462.65930621 -25.33337748 462.66004276 C-19.98288815 462.66188912 -14.63240637 462.66943431 -9.28192139 462.67617798 C2.42659916 462.68977889 14.13511629 462.69578872 25.84364343 462.70018864 C33.14946265 462.70294803 40.45528054 462.70718482 47.76109886 462.71169281 C67.97435708 462.72388766 88.18761423 462.73418662 108.40087605 462.7375679 C110.34265314 462.73789725 110.34265314 462.73789725 112.32365806 462.73823325 C113.62133683 462.73845153 114.91901561 462.73866981 116.25601798 462.7388947 C118.88576655 462.73933817 121.51551511 462.73978474 124.14526367 462.74023438 C125.44971977 462.7404558 126.75417587 462.74067723 128.09816094 462.74090537 C149.24344665 462.74485488 170.38869793 462.76231258 191.53397033 462.7855939 C213.2246472 462.80928367 234.91530677 462.82176866 256.60599679 462.82293582 C268.79213757 462.82385391 280.9782335 462.82963977 293.16436195 462.84775543 C303.53966389 462.8631244 313.91490712 462.86829587 324.29021827 462.86001733 C329.5869678 462.85609947 334.88359898 462.85709562 340.18033409 462.87107468 C345.02560944 462.88374568 349.87067668 462.88267631 354.71595147 462.87048396 C356.47236399 462.86851511 358.22879092 462.87165975 359.98518316 462.88032833 C362.36639643 462.89134013 364.74686472 462.88399077 367.12805653 462.8719368 C367.81544872 462.87953199 368.50284092 462.88712718 369.21106318 462.89495254 C373.47173901 462.84815395 376.20527512 462.16333723 379.5625 459.5 C380.60082482 456.38502553 380.68678661 454.24378672 380.68554783 450.97712421 C380.6875387 449.82126757 380.68952957 448.66541092 380.69158077 447.47452831 C380.68866811 446.19961686 380.68575544 444.92470541 380.68275452 443.61116028 C380.6831918 442.25068644 380.68406844 440.89021269 380.68534851 439.52973938 C380.68759798 435.77554559 380.68356919 432.02138018 380.67857273 428.26718999 C380.6742174 424.16251797 380.67566659 420.05784734 380.67639065 415.95317364 C380.67692312 407.97914798 380.67229791 400.00513355 380.66588932 392.03111077 C380.65870044 382.81090053 380.65789518 373.59069707 380.65710449 364.3704834 C380.65185023 340.01782048 380.63788917 315.66516007 380.625 291.3125 C380.604375 236.924375 380.58375 182.53625 380.5625 126.5 C232.7225 126.5 84.8825 126.5 -67.4375 126.5 Z " fill="#000000" transform="translate(99.4375,17.5)"/>
<path d="M0 0 C1.66244946 1.00699531 3.32769521 2.00945749 5 3 C6.36318359 2.03900391 6.36318359 2.03900391 7.75390625 1.05859375 C29.2881874 -13.86667126 51.78280316 -21.78354974 78.1875 -18.4375 C89.04016656 -16.27609937 99.43045454 -11.12634457 107.984375 -4.1875 C109.88850707 -2.7786016 109.88850707 -2.7786016 111.88354492 -3.29394531 C114.07866616 -4.02624323 115.88187462 -4.9434765 117.87890625 -6.109375 C137.90433869 -17.45920986 159.20049471 -23.256098 182.0546875 -16.97265625 C203.54309519 -9.87635185 219.1670788 3.23785086 230 23 C240.99244767 44.87441849 240.48722422 70.55198517 233.04956055 93.56103516 C221.32295407 127.39301343 198.28275247 156.16324145 173.16333008 181.09741211 C171.42745269 182.82248477 169.7026491 184.55811991 167.97851562 186.29492188 C162.02962914 192.2504659 156.00191493 197.86344361 149.38549805 203.07983398 C146.94759197 205.04218495 144.65951268 207.1120995 142.375 209.25 C135.9748927 215.07104997 129.07315438 220.22756481 122.14404297 225.39550781 C120.08671722 226.93510527 118.04501287 228.49369151 116.00390625 230.0546875 C114.77439283 230.97523569 113.54397297 231.89457488 112.3125 232.8125 C111.48540527 233.45239868 111.48540527 233.45239868 110.64160156 234.10522461 C108.16711478 235.91627855 106.10951381 236.97635329 103.10546875 237.625 C98.47992928 236.69407382 95.60186865 234.13269026 92 231.1875 C91.25451904 230.59654541 90.50903809 230.00559082 89.7409668 229.39672852 C88.21387341 228.18491232 86.69130535 226.96737136 85.17333984 225.74414062 C83.2210585 224.17740304 81.25273305 222.63664982 79.26953125 221.109375 C70.93815109 214.68257575 62.93407533 207.90915678 55 201 C50.98262936 202.66336654 48.01964738 205.46230863 44.8125 208.3125 C37.44583765 214.74223065 29.76093971 220.68830456 21.93310547 226.54296875 C20.18048195 227.86396612 18.44868327 229.20706588 16.72265625 230.5625 C15.78292969 231.284375 14.84320313 232.00625 13.875 232.75 C13.08867187 233.36359375 12.30234375 233.9771875 11.4921875 234.609375 C8.17414058 236.46082438 5.80733014 236.96700039 2 237 C-0.52687693 235.67740895 -2.37487527 234.49609745 -4.5625 232.75 C-5.46150024 232.06925415 -5.46150024 232.06925415 -6.37866211 231.37475586 C-8.26798798 229.93551597 -10.13398839 228.46928895 -12 227 C-13.18649152 226.08852947 -14.37397341 225.17834652 -15.5625 224.26953125 C-22.38092181 219.01926102 -29.01552039 213.55826382 -35.54443359 207.953125 C-37.7496218 206.06348398 -39.96544146 204.18806548 -42.1940918 202.32617188 C-50.34347241 195.48370035 -58.02823559 188.28595702 -65.5246582 180.73608398 C-67.32215805 178.92778392 -69.13022316 177.13054023 -70.93945312 175.33398438 C-77.74976174 168.53227302 -84.0743194 161.59666103 -90 154 C-90.87265503 152.90836548 -90.87265503 152.90836548 -91.76293945 151.79467773 C-115.37481821 122.19125405 -133.24170344 86.82207042 -130 48 C-126.77302484 26.36731464 -114.88353793 7.08715724 -97.3046875 -6.0078125 C-64.8136917 -27.39077555 -30.86595512 -20.02586651 0 0 Z M-100.7109375 18.91796875 C-113.0033016 35.46860915 -115.82797411 52.89512205 -113.6015625 73.140625 C-109.02074339 102.52925666 -91.11676098 128.09290435 -72 150 C-71.39671875 150.70382812 -70.7934375 151.40765625 -70.171875 152.1328125 C-68.46905671 154.10841237 -66.74006509 156.05710524 -65 158 C-64.15308594 158.95132813 -63.30617187 159.90265625 -62.43359375 160.8828125 C-55.25294819 168.85777185 -47.62297874 176.23409274 -39.69091797 183.45751953 C-38.22474172 184.79498726 -36.769551 186.14447877 -35.31640625 187.49609375 C-29.6946484 192.67475739 -23.7829349 197.40037185 -17.74609375 202.078125 C-15.11049564 204.12282887 -12.50291949 206.19811753 -9.91015625 208.296875 C-9.23621826 208.84174561 -8.56228027 209.38661621 -7.86791992 209.94799805 C-6.56764951 211.00137159 -5.26952831 212.05740526 -3.97387695 213.11645508 C-1.10121225 215.43796218 1.56315936 217.55515903 5 219 C32.41337159 198.66590569 60.26972775 176.52303037 82 150 C82.42458496 149.48920898 82.84916992 148.97841797 83.28662109 148.45214844 C90.82411564 139.36229198 97.76603924 130.03245913 104 120 C104.58974609 119.05519775 104.58974609 119.05519775 105.19140625 118.09130859 C118.42934991 96.57965014 126.8696277 70.92839317 122.25 45.5 C121.87180378 43.98984149 121.45420313 42.48906367 121 41 C120.5978125 39.65228516 120.5978125 39.65228516 120.1875 38.27734375 C115.64843637 24.5277635 105.46154592 11.51357916 93 4 C77.52529311 -3.62484159 61.47085194 -5.32920713 44.8359375 -0.39453125 C33.21256706 3.62294243 22.24919234 9.87728179 12.86328125 17.8046875 C9.62174854 20.48435454 7.81956544 21.91059286 3.5625 22.375 C-0.70217612 20.72898466 -3.0195278 18.4241613 -6.3125 15.3203125 C-21.97350663 1.79903643 -42.24418638 -4.21562252 -62.67675781 -3.21337891 C-77.89666997 -1.81550131 -90.99992469 7.60954178 -100.7109375 18.91796875 Z " fill="#030102" transform="translate(202,203)"/>
<path d="M0 0 C1.10496826 0.02618408 2.20993652 0.05236816 3.34838867 0.0793457 C4.55043945 0.09545898 5.75249023 0.11157227 6.9909668 0.12817383 C8.85978516 0.19101562 8.85978516 0.19101562 10.76635742 0.25512695 C12.03157227 0.27768555 13.29678711 0.30024414 14.6003418 0.32348633 C17.71938361 0.38233617 20.83601644 0.46451325 23.95385742 0.56762695 C24.03494751 1.89044678 24.03494751 1.89044678 24.11767578 3.23999023 C24.19638916 4.40256348 24.27510254 5.56513672 24.35620117 6.76293945 C24.43088623 7.91294434 24.50557129 9.06294922 24.58251953 10.24780273 C25.35592346 17.1621661 27.78715115 21.81503553 32.89135742 26.50512695 C39.07773343 31.40882316 44.13939417 32.32039635 51.95385742 31.56762695 C58.75713811 30.1167481 64.37196359 26.4404677 68.24291992 20.6340332 C71.74378271 13.77083098 71.31842474 8.82825177 71.95385742 0.56762695 C93.07385742 0.56762695 114.19385742 0.56762695 135.95385742 0.56762695 C136.28385742 4.85762695 136.61385742 9.14762695 136.95385742 13.56762695 C139.60765269 21.8474682 143.92221867 26.52216139 151.32885742 31.00512695 C159.47630289 32.75100813 166.83119016 31.83607723 173.86401367 27.34887695 C178.9225923 23.48244743 180.96904581 19.59840071 182.95385742 13.56762695 C183.28385742 9.27762695 183.61385742 4.98762695 183.95385742 0.56762695 C205.07385742 0.56762695 226.19385742 0.56762695 247.95385742 0.56762695 C248.28385742 4.85762695 248.61385742 9.14762695 248.95385742 13.56762695 C251.60765269 21.8474682 255.92221867 26.52216139 263.32885742 31.00512695 C271.47630289 32.75100813 278.83119016 31.83607723 285.86401367 27.34887695 C290.9225923 23.48244743 292.96904581 19.59840071 294.95385742 13.56762695 C295.28385742 9.27762695 295.61385742 4.98762695 295.95385742 0.56762695 C317.07385742 0.56762695 338.19385742 0.56762695 359.95385742 0.56762695 C360.28385742 4.85762695 360.61385742 9.14762695 360.95385742 13.56762695 C363.60765269 21.8474682 367.92221867 26.52216139 375.32885742 31.00512695 C383.47630289 32.75100813 390.83119016 31.83607723 397.86401367 27.34887695 C402.70508852 23.64869235 405.38109021 19.44390005 406.95385742 13.56762695 C407.52990447 9.23262885 407.78370157 4.9341835 407.95385742 0.56762695 C412.18289362 0.48037036 416.41169754 0.42714805 420.64135742 0.38012695 C421.83954102 0.35499023 423.03772461 0.32985352 424.2722168 0.30395508 C425.42915039 0.29428711 426.58608398 0.28461914 427.77807617 0.2746582 C428.8411499 0.25894775 429.90422363 0.2432373 430.99951172 0.22705078 C434.37863073 0.6165947 436.23376706 1.55967242 438.95385742 3.56762695 C448.04842234 21.7567568 439.95385742 44.23156156 439.95385742 64.56762695 C292.11385742 64.56762695 144.27385742 64.56762695 -8.04614258 64.56762695 C-8.04614258 1.49934131 -8.04614258 1.49934131 0 0 Z " fill="#536D79" transform="translate(40.046142578125,63.432373046875)"/>
<path d="M0 0 C12.78640659 9.90211659 23.19041205 24.89752558 25.3125 41.3125 C28.05333936 77.34850431 11.39051331 109.29164989 -11.375 136.1875 C-13.13587981 138.23812568 -14.91030752 140.27590365 -16.6875 142.3125 C-17.29078125 143.01632812 -17.8940625 143.72015625 -18.515625 144.4453125 C-20.21843183 146.42089907 -21.94765472 148.36943508 -23.6875 150.3125 C-24.94046875 151.72208984 -24.94046875 151.72208984 -26.21875 153.16015625 C-45.98071672 175.13759009 -69.01172655 193.75079991 -92.6875 211.3125 C-98.05320779 208.43553781 -102.63875909 205.13882465 -107.3125 201.25 C-107.99892578 200.68289307 -108.68535156 200.11578613 -109.39257812 199.53149414 C-110.80159657 198.36560619 -112.20882935 197.19755678 -113.61425781 196.02734375 C-115.60052546 194.38443938 -117.60519204 192.76747799 -119.6171875 191.15625 C-120.80769203 190.18799205 -121.99781656 189.21926663 -123.1875 188.25 C-123.74518066 187.80970459 -124.30286133 187.36940918 -124.87744141 186.91577148 C-126.40625 185.65234375 -126.40625 185.65234375 -128.6875 183.3125 C-128.6875 179.3125 -128.6875 179.3125 -127.51342773 177.70019531 C-126.97145752 177.18553711 -126.4294873 176.67087891 -125.87109375 176.140625 C-125.27538574 175.563125 -124.67967773 174.985625 -124.06591797 174.390625 C-123.42541504 173.78734375 -122.78491211 173.1840625 -122.125 172.5625 C-120.822558 171.29858412 -119.52175619 170.03297571 -118.22265625 168.765625 C-117.29090576 167.86166992 -117.29090576 167.86166992 -116.34033203 166.93945312 C-113.92154466 164.55853746 -111.69093303 162.05748452 -109.50390625 159.46484375 C-108.03483302 157.72407096 -106.54187868 156.01716743 -105.02734375 154.31640625 C-76.93973386 122.54290379 -56.82639629 85.55754973 -58.6875 42.3125 C-59.57107244 29.23161161 -64.19334225 13.80665775 -73.6875 4.3125 C-73.6875 3.3225 -73.6875 2.3325 -73.6875 1.3125 C-49.53759082 -11.91856726 -24.19269121 -16.77224391 0 0 Z " fill="#D61B5F" transform="translate(398.6875,210.6875)"/>
<path d="M0 0 C0.98613281 0.17208984 0.98613281 0.17208984 1.9921875 0.34765625 C2.65476562 0.43917969 3.31734375 0.53070313 4 0.625 C6.68069146 1.75223637 7.41783782 2.86776373 8.8671875 5.41015625 C9.16006401 8.25547922 9.28796204 10.87544506 9.265625 13.71875 C9.26849518 14.5224855 9.27136536 15.32622101 9.27432251 16.15431213 C9.27636063 17.85133571 9.27084835 19.54838291 9.25830078 21.24536133 C9.24226378 23.83533626 9.25814635 26.42374581 9.27734375 29.01367188 C9.27536086 30.66536801 9.27151624 32.31706318 9.265625 33.96875 C9.27473404 35.12521278 9.27473404 35.12521278 9.2840271 36.30503845 C9.22513384 40.8356483 8.69775828 43.81742535 5.8671875 47.41015625 C3.23840589 48.53292129 0.70622559 48.61621547 -2.1328125 48.41015625 C-5.39993076 46.73471099 -5.9606235 45.92672324 -7.1328125 42.41015625 C-7.40970747 37.15896576 -7.44620471 31.9081974 -7.48291016 26.65039062 C-7.49947892 24.9103458 -7.52678139 23.1703693 -7.56494141 21.43066406 C-7.61978131 18.91565839 -7.6415911 16.40224218 -7.65625 13.88671875 C-7.67891937 13.11260651 -7.70158875 12.33849426 -7.72494507 11.54092407 C-7.70900142 7.45320935 -7.31754005 5.6414416 -4.73339844 2.40600586 C-2.1328125 0.41015625 -2.1328125 0.41015625 0 0 Z " fill="#243137" transform="translate(423.1328125,31.58984375)"/>
<path d="M0 0 C0.98613281 0.17208984 0.98613281 0.17208984 1.9921875 0.34765625 C2.65476562 0.43917969 3.31734375 0.53070313 4 0.625 C6.68069146 1.75223637 7.41783782 2.86776373 8.8671875 5.41015625 C9.16006401 8.25547922 9.28796204 10.87544506 9.265625 13.71875 C9.26849518 14.5224855 9.27136536 15.32622101 9.27432251 16.15431213 C9.27636063 17.85133571 9.27084835 19.54838291 9.25830078 21.24536133 C9.24226378 23.83533626 9.25814635 26.42374581 9.27734375 29.01367188 C9.27536086 30.66536801 9.27151624 32.31706318 9.265625 33.96875 C9.27473404 35.12521278 9.27473404 35.12521278 9.2840271 36.30503845 C9.22513384 40.8356483 8.69775828 43.81742535 5.8671875 47.41015625 C3.23840589 48.53292129 0.70622559 48.61621547 -2.1328125 48.41015625 C-5.39993076 46.73471099 -5.9606235 45.92672324 -7.1328125 42.41015625 C-7.40970747 37.15896576 -7.44620471 31.9081974 -7.48291016 26.65039062 C-7.49947892 24.9103458 -7.52678139 23.1703693 -7.56494141 21.43066406 C-7.61978131 18.91565839 -7.6415911 16.40224218 -7.65625 13.88671875 C-7.67891937 13.11260651 -7.70158875 12.33849426 -7.72494507 11.54092407 C-7.70900142 7.45320935 -7.31754005 5.6414416 -4.73339844 2.40600586 C-2.1328125 0.41015625 -2.1328125 0.41015625 0 0 Z " fill="#243137" transform="translate(311.1328125,31.58984375)"/>
<path d="M0 0 C0.98613281 0.17208984 0.98613281 0.17208984 1.9921875 0.34765625 C2.65476563 0.43917969 3.31734375 0.53070313 4 0.625 C6.68069146 1.75223637 7.41783782 2.86776373 8.8671875 5.41015625 C9.16006401 8.25547922 9.28796204 10.87544506 9.265625 13.71875 C9.26849518 14.5224855 9.27136536 15.32622101 9.27432251 16.15431213 C9.27636063 17.85133571 9.27084835 19.54838291 9.25830078 21.24536133 C9.24226378 23.83533626 9.25814635 26.42374581 9.27734375 29.01367188 C9.27536086 30.66536801 9.27151624 32.31706318 9.265625 33.96875 C9.27473404 35.12521278 9.27473404 35.12521278 9.2840271 36.30503845 C9.22513384 40.8356483 8.69775828 43.81742535 5.8671875 47.41015625 C3.23840589 48.53292129 0.70622559 48.61621547 -2.1328125 48.41015625 C-5.39993076 46.73471099 -5.9606235 45.92672324 -7.1328125 42.41015625 C-7.40970747 37.15896576 -7.44620471 31.9081974 -7.48291016 26.65039062 C-7.49947892 24.9103458 -7.52678139 23.1703693 -7.56494141 21.43066406 C-7.61978131 18.91565839 -7.6415911 16.40224218 -7.65625 13.88671875 C-7.67891937 13.11260651 -7.70158875 12.33849426 -7.72494507 11.54092407 C-7.70900142 7.45320935 -7.31754005 5.6414416 -4.73339844 2.40600586 C-2.1328125 0.41015625 -2.1328125 0.41015625 0 0 Z " fill="#243137" transform="translate(199.1328125,31.58984375)"/>
<path d="M0 0 C0.98613281 0.17208984 0.98613281 0.17208984 1.9921875 0.34765625 C2.65476562 0.43917969 3.31734375 0.53070313 4 0.625 C6.68069146 1.75223637 7.41783782 2.86776373 8.8671875 5.41015625 C9.16006401 8.25547922 9.28796204 10.87544506 9.265625 13.71875 C9.26849518 14.5224855 9.27136536 15.32622101 9.27432251 16.15431213 C9.27636063 17.85133571 9.27084835 19.54838291 9.25830078 21.24536133 C9.24226378 23.83533626 9.25814635 26.42374581 9.27734375 29.01367188 C9.27536086 30.66536801 9.27151624 32.31706318 9.265625 33.96875 C9.27473404 35.12521278 9.27473404 35.12521278 9.2840271 36.30503845 C9.22513384 40.8356483 8.69775828 43.81742535 5.8671875 47.41015625 C3.23840589 48.53292129 0.70622559 48.61621547 -2.1328125 48.41015625 C-5.39993076 46.73471099 -5.9606235 45.92672324 -7.1328125 42.41015625 C-7.40970747 37.15896576 -7.44620471 31.9081974 -7.48291016 26.65039062 C-7.49947892 24.9103458 -7.52678139 23.1703693 -7.56494141 21.43066406 C-7.61978131 18.91565839 -7.6415911 16.40224218 -7.65625 13.88671875 C-7.67891937 13.11260651 -7.70158875 12.33849426 -7.72494507 11.54092407 C-7.70900142 7.45320935 -7.31754005 5.6414416 -4.73339844 2.40600586 C-2.1328125 0.41015625 -2.1328125 0.41015625 0 0 Z " fill="#243137" transform="translate(87.1328125,31.58984375)"/>
</svg>
